<svg xmlns="http://www.w3.org/2000/svg" width="1200" height="760" viewBox="0 0 1200 760" role="img"><title>Architecture</title><desc>Put each decision at the right level.</desc><defs>
<filter id="shadow" x="-30%" y="-30%" width="160%" height="180%"><feDropShadow dx="0" dy="12" stdDeviation="13" flood-color="#6B645A" flood-opacity=".20"/></filter>
<filter id="softshadow" x="-30%" y="-30%" width="160%" height="180%"><feDropShadow dx="0" dy="7" stdDeviation="8" flood-color="#6B645A" flood-opacity=".13"/></filter>
<linearGradient id="greenFront" x1="0" y1="0" x2="1" y2="1"><stop offset="0" stop-color="#315F49"/><stop offset="1" stop-color="#173B2C"/></linearGradient>
<linearGradient id="greenSide" x1="0" y1="0" x2="1" y2="1"><stop offset="0" stop-color="#153628"/><stop offset="1" stop-color="#0D291E"/></linearGradient>
<linearGradient id="greenTop" x1="0" y1="0" x2="1" y2="1"><stop offset="0" stop-color="#749180"/><stop offset="1" stop-color="#426A55"/></linearGradient>
<linearGradient id="stoneFront" x1="0" y1="0" x2="0" y2="1"><stop offset="0" stop-color="#FBFAF6"/><stop offset="1" stop-color="#E5E0D5"/></linearGradient>
<linearGradient id="stoneTop" x1="0" y1="0" x2="1" y2="1"><stop offset="0" stop-color="#FFFFFF"/><stop offset="1" stop-color="#F0ECE4"/></linearGradient>
<linearGradient id="stoneSide" x1="0" y1="0" x2="1" y2="1"><stop offset="0" stop-color="#DDD7CC"/><stop offset="1" stop-color="#C8C1B5"/></linearGradient>
<linearGradient id="sage" x1="0" y1="0" x2="1" y2="1"><stop offset="0" stop-color="#DCE9E1"/><stop offset="1" stop-color="#C9DCCF"/></linearGradient>
<pattern id="marble" width="54" height="54" patternUnits="userSpaceOnUse"><rect width="54" height="54" fill="#234936"/><path d="M-8 39 C8 24,12 8,30 -4 M12 60 C26 46,31 28,58 18 M-5 14 C9 19,18 24,27 38" fill="none" stroke="#8BA394" stroke-width="2" opacity=".45"/><path d="M4 46 C18 36,25 16,43 5 M30 58 C36 42,47 34,62 31" fill="none" stroke="#C7D0C8" stroke-width="1" opacity=".3"/></pattern>
</defs><rect width="1200" height="760" fill="#F7F4ED"/>
<text x="66" y="83" font-family="Georgia,Times New Roman,serif" font-size="62" fill="#172019">Architecture</text><text x="68" y="128" font-family="Georgia,Times New Roman,serif" font-size="28" fill="#172019">Put each decision at the right level.</text><g filter="url(#softshadow)">
<polygon points="78,370 243,370 263,350 98,350" fill="url(#stoneTop)"/>
<polygon points="78,370 243,370 243,422 78,422" fill="url(#stoneFront)"/>
<polygon points="243,370 263,350 263,402 243,422" fill="url(#stoneSide)"/>
</g><g filter="url(#shadow)">
<polygon points="125,305 190,305 206.25,288.75 141.25,288.75" fill="url(#greenTop)"/>
<polygon points="125,305 190,305 190,370 125,370" fill="url(#greenFront)"/>
<polygon points="190,305 206.25,288.75 206.25,353.75 190,370" fill="url(#greenSide)"/>
</g><g filter="url(#softshadow)">
<polygon points="322,345 537,345 561,321 346,321" fill="url(#stoneTop)"/>
<polygon points="322,345 537,345 537,423 322,423" fill="url(#stoneFront)"/>
<polygon points="537,345 561,321 561,399 537,423" fill="url(#stoneSide)"/>
</g><g filter="url(#shadow)">
<polygon points="365,295 415,295 427.5,282.5 377.5,282.5" fill="url(#greenTop)"/>
<polygon points="365,295 415,295 415,345 365,345" fill="url(#greenFront)"/>
<polygon points="415,295 427.5,282.5 427.5,332.5 415,345" fill="url(#greenSide)"/>
</g><g filter="url(#shadow)">
<polygon points="425,245 475,245 487.5,232.5 437.5,232.5" fill="url(#greenTop)"/>
<polygon points="425,245 475,245 475,295 425,295" fill="url(#greenFront)"/>
<polygon points="475,245 487.5,232.5 487.5,282.5 475,295" fill="url(#greenSide)"/>
</g><g filter="url(#shadow)">
<polygon points="425,295 475,295 487.5,282.5 437.5,282.5" fill="url(#greenTop)"/>
<polygon points="425,295 475,295 475,345 425,345" fill="url(#greenFront)"/>
<polygon points="475,295 487.5,282.5 487.5,332.5 475,345" fill="url(#greenSide)"/>
</g><g filter="url(#softshadow)">
<polygon points="580,315 810,315 836,289 606,289" fill="url(#stoneTop)"/>
<polygon points="580,315 810,315 810,420 580,420" fill="url(#stoneFront)"/>
<polygon points="810,315 836,289 836,394 810,420" fill="url(#stoneSide)"/>
</g><g filter="url(#shadow)"><polygon points="650,199 736,199 757,181 671,181" fill="#E7E4DC"/><rect x="650" y="199" width="86" height="116" fill="#C9CCC7"/><polygon points="736,199 757,181 757,297 736,315" fill="#AEB2AC"/><rect x="667" y="220" width="11" height="13" rx="1" fill="#EEECE5"/><rect x="691" y="220" width="11" height="13" rx="1" fill="#EEECE5"/><rect x="715" y="220" width="11" height="13" rx="1" fill="#EEECE5"/><rect x="667" y="245" width="11" height="13" rx="1" fill="#EEECE5"/><rect x="691" y="245" width="11" height="13" rx="1" fill="#EEECE5"/><rect x="715" y="245" width="11" height="13" rx="1" fill="#EEECE5"/><rect x="667" y="270" width="11" height="13" rx="1" fill="#EEECE5"/><rect x="691" y="270" width="11" height="13" rx="1" fill="#EEECE5"/><rect x="715" y="270" width="11" height="13" rx="1" fill="#EEECE5"/><rect x="667" y="295" width="11" height="13" rx="1" fill="#EEECE5"/><rect x="691" y="295" width="11" height="13" rx="1" fill="#EEECE5"/><rect x="715" y="295" width="11" height="13" rx="1" fill="#EEECE5"/></g><g filter="url(#softshadow)">
<polygon points="875,275 1080,275 1108,247 903,247" fill="url(#stoneTop)"/>
<polygon points="875,275 1080,275 1080,415 875,415" fill="url(#stoneFront)"/>
<polygon points="1080,275 1108,247 1108,387 1080,415" fill="url(#stoneSide)"/>
</g><g filter="url(#shadow)">
<polygon points="925,175 1025,175 1050.0,150.0 950.0,150.0" fill="url(#marble)"/>
<polygon points="925,175 1025,175 1025,275 925,275" fill="url(#marble)"/>
<polygon points="1025,175 1050.0,150.0 1050.0,250.0 1025,275" fill="url(#marble)"/>
</g><text x="160" y="505" font-family="Arial,Helvetica,sans-serif" font-size="21" font-weight="700" fill="#172019" text-anchor="middle">Team</text><text x="160" y="540" font-family="Arial,Helvetica,sans-serif" font-size="15" fill="#656961" text-anchor="middle">Everyday decisions</text><text x="430" y="505" font-family="Arial,Helvetica,sans-serif" font-size="21" font-weight="700" fill="#172019" text-anchor="middle">Team within guardrails</text><text x="430" y="540" font-family="Arial,Helvetica,sans-serif" font-size="15" fill="#656961" text-anchor="middle"><tspan x="430" dy="0">Decisions within</tspan><tspan x="430" dy="21">agreed rules</tspan></text><text x="695" y="505" font-family="Arial,Helvetica,sans-serif" font-size="21" font-weight="700" fill="#172019" text-anchor="middle">Organization</text><text x="695" y="540" font-family="Arial,Helvetica,sans-serif" font-size="15" fill="#656961" text-anchor="middle"><tspan x="695" dy="0">Decisions with</tspan><tspan x="695" dy="21">broader impact</tspan></text><text x="980" y="505" font-family="Arial,Helvetica,sans-serif" font-size="21" font-weight="700" fill="#172019" text-anchor="middle">Exception</text><text x="980" y="540" font-family="Arial,Helvetica,sans-serif" font-size="15" fill="#656961" text-anchor="middle"><tspan x="980" dy="0">Strategic and</tspan><tspan x="980" dy="21">non-standard decisions</tspan></text><line x1="72" y1="622" x2="1110" y2="622" stroke="#172019" stroke-width="1.8"/><path d="M1110 622 l-15 -9 M1110 622 l-15 9" stroke="#172019" stroke-width="1.8" fill="none"/>
<text x="72" y="657" font-family="Arial" font-size="15" font-weight="700" fill="#656961">Low impact</text><text x="72" y="681" font-family="Arial" font-size="15" fill="#656961">Easy to reverse</text>
<text x="598" y="657" font-family="Arial" font-size="15" font-weight="700" fill="#656961" text-anchor="middle">Broader impact</text><text x="598" y="681" font-family="Arial" font-size="15" fill="#656961" text-anchor="middle">Higher cost of error</text>
<text x="1110" y="657" font-family="Arial" font-size="15" font-weight="700" fill="#656961" text-anchor="end">Highest impact</text><text x="1110" y="681" font-family="Arial" font-size="15" fill="#656961" text-anchor="end">Hard to reverse</text>
</svg>